<?xml version="1.0" standalone="no"?>
<!DOCTYPE svg PUBLIC "-//W3C//DTD SVG 20010904//EN"
 "http://www.w3.org/TR/2001/REC-SVG-20010904/DTD/svg10.dtd">
<svg version="1.0" xmlns="http://www.w3.org/2000/svg"
 width="200.000000pt" height="200.000000pt" viewBox="0 0 200.000000 200.000000"
 preserveAspectRatio="xMidYMid meet">

<g transform="translate(0.000000,200.000000) scale(0.100000,-0.100000)"
fill="#000000" stroke="none">
<path d="M630 1869 c-167 -18 -334 -137 -396 -284 -41 -97 -44 -129 -44 -487
l0 -348 -25 0 c-18 0 -28 -7 -35 -26 -13 -34 -13 -240 0 -265 10 -18 24 -19
279 -19 236 0 270 2 275 16 3 9 6 73 6 143 0 131 -6 151 -42 151 -17 0 -18 19
-18 329 0 330 0 330 22 345 31 22 84 20 108 -4 18 -18 20 -33 20 -140 0 -109
-2 -120 -18 -120 -37 0 -42 -20 -42 -160 0 -140 5 -160 42 -160 16 0 18 -11
18 -123 0 -68 5 -150 11 -183 31 -173 167 -327 338 -384 88 -29 239 -29 332 0
124 38 236 132 294 246 51 102 55 132 55 507 l0 347 25 0 c18 0 28 7 35 26 13
34 13 240 0 265 -10 18 -24 19 -279 19 -236 0 -270 -2 -275 -16 -3 -9 -6 -73
-6 -143 0 -131 6 -151 42 -151 17 0 18 -19 18 -329 0 -330 0 -330 -22 -345
-31 -22 -84 -20 -108 4 -18 18 -20 33 -20 140 0 109 2 120 18 120 37 0 42 20
42 160 0 140 -5 160 -42 160 -16 0 -18 11 -18 123 0 155 -12 223 -56 313 -96
197 -294 297 -534 273z m218 -77 c117 -37 221 -130 271 -243 27 -61 41 -155
41 -281 l0 -108 -160 0 -160 0 0 126 c0 142 -10 172 -66 199 -45 21 -112 19
-152 -5 -59 -36 -62 -54 -62 -410 l0 -320 -155 0 -155 0 0 338 c0 367 5 413
57 501 84 144 220 220 395 221 56 0 107 -6 146 -18z m962 -387 l0 -95 -215 0
-215 0 0 95 0 95 215 0 215 0 0 -95z m-62 -517 c-3 -349 -4 -365 -26 -418 -45
-111 -142 -209 -252 -252 -80 -31 -234 -36 -316 -10 -120 38 -223 129 -273
243 -27 61 -41 155 -41 282 l0 107 160 0 160 0 0 -126 c0 -142 10 -172 66
-199 45 -21 112 -19 152 5 59 36 62 54 62 410 l0 320 156 0 155 0 -3 -362z
m-528 112 l0 -90 -220 0 -220 0 0 90 0 90 220 0 220 0 0 -90z m-600 -405 l0
-95 -215 0 -215 0 0 95 0 95 215 0 215 0 0 -95z"/>
</g>
</svg>
